<?xml version="1.0" encoding="utf-8"?>
<!-- Generator: Adobe Illustrator 23.0.3, SVG Export Plug-In . SVG Version: 6.00 Build 0)  -->
<svg version="1.1" id="Layer_1" xmlns="http://www.w3.org/2000/svg" xmlns:xlink="http://www.w3.org/1999/xlink" x="0px" y="0px"
	 viewBox="0 0 24 24" style="enable-background:new 0 0 24 24;" xml:space="preserve">
<style type="text/css">
	.st0{fill:url(#SVGID_1_);}
	.st1{fill:url(#SVGID_2_);}
	.st2{fill:url(#SVGID_3_);}
	.st3{fill:url(#SVGID_4_);}
	.st4{fill:url(#SVGID_5_);}
	.st5{fill:url(#SVGID_6_);}
	.st6{fill:url(#SVGID_7_);}
	.st7{fill:url(#SVGID_8_);}
	.st8{fill:url(#SVGID_9_);}
	.st9{fill:url(#SVGID_10_);}
	.st10{fill:url(#SVGID_11_);}
	.st11{fill:url(#SVGID_12_);}
	.st12{fill:url(#SVGID_13_);}
	.st13{fill:url(#SVGID_14_);}
	.st14{fill:url(#SVGID_15_);}
	.st15{fill:url(#SVGID_16_);}
	.st16{fill:url(#SVGID_17_);}
	.st17{fill:url(#SVGID_18_);}
	.st18{fill:url(#SVGID_19_);}
	.st19{fill:url(#SVGID_20_);}
</style>
<linearGradient id="SVGID_1_" gradientUnits="userSpaceOnUse" x1="1.9356" y1="12.1089" x2="23.662" y2="12.1089">
	<stop  offset="0" style="stop-color:#1245C6"/>
	<stop  offset="1" style="stop-color:#9909B7"/>
</linearGradient>
<path class="st0" d="M12,11.6v7.6c0,0.4-0.2,0.8-0.5,1.2c-0.3,0.3-0.7,0.5-1.2,0.5c-0.4,0-0.8-0.2-1.2-0.5c-0.3-0.3-0.5-0.7-0.5-1.2
	c0-0.2-0.1-0.4-0.2-0.6c-0.2-0.2-0.4-0.2-0.6-0.2c-0.2,0-0.4,0.1-0.6,0.2C7,18.8,6.9,19,6.9,19.2c0,0.9,0.3,1.7,1,2.4
	c0.7,0.7,1.4,1,2.4,1c0.9,0,1.7-0.3,2.4-1c0.7-0.7,1-1.4,1-2.4v-7.6c-0.3-0.1-0.6-0.1-0.8-0.1C12.5,11.5,12.3,11.5,12,11.6z
	 M13.6,3.8V2.5c0-0.2-0.1-0.4-0.2-0.6c-0.2-0.2-0.4-0.2-0.6-0.2c-0.2,0-0.4,0.1-0.6,0.2C12,2.1,12,2.3,12,2.5v1.3c0.4,0,0.6,0,0.8,0
	C13,3.8,13.3,3.8,13.6,3.8z M23.6,11.9c-0.3-1.2-0.8-2.3-1.5-3.3c-0.7-1-1.6-1.8-2.5-2.4c-1-0.6-2-1.1-3.2-1.5
	c-1.2-0.3-2.4-0.5-3.6-0.5c-1.7,0-3.2,0.3-4.7,0.9C6.6,5.7,5.3,6.5,4.2,7.7c-1.1,1.2-1.9,2.6-2.3,4.2c0,0,0,0,0,0.1
	c0,0.1,0,0.2,0.1,0.3c0.1,0.1,0.2,0.1,0.3,0.1c0.1,0,0.2,0,0.3-0.1c0.4-0.4,0.8-0.7,1.2-0.9c0.4-0.2,0.8-0.3,1.3-0.3
	c0.6,0,1.1,0.2,1.7,0.5c0.5,0.3,1,0.7,1.3,1.3c0.1,0.1,0.1,0.2,0.2,0.4c0.1,0.2,0.2,0.3,0.2,0.3c0.1,0.1,0.2,0.2,0.4,0.2
	c0.2,0,0.3-0.1,0.4-0.2c0-0.1,0.1-0.2,0.2-0.3c0.1-0.2,0.2-0.3,0.2-0.4c0.4-0.5,0.8-0.9,1.3-1.3c0.5-0.3,1.1-0.5,1.7-0.5
	s1.1,0.2,1.7,0.5c0.5,0.3,1,0.7,1.3,1.3c0.1,0.1,0.1,0.2,0.2,0.4c0.1,0.2,0.2,0.3,0.2,0.3c0.1,0.1,0.2,0.2,0.4,0.2
	c0.1,0,0.3-0.1,0.4-0.2c0-0.1,0.1-0.2,0.2-0.3c0.1-0.2,0.2-0.3,0.2-0.4c0.4-0.5,0.8-0.9,1.3-1.3c0.5-0.3,1.1-0.5,1.7-0.5
	c0.5,0,0.9,0.1,1.3,0.3c0.4,0.2,0.8,0.5,1.2,0.9c0.1,0.1,0.2,0.1,0.3,0.1c0.1,0,0.2,0,0.3-0.1C23.6,12.2,23.7,12.1,23.6,11.9
	C23.7,11.9,23.7,11.9,23.6,11.9z"/>
</svg>
